<svg width="75" height="79" viewBox="0 0 75 79" fill="none" xmlns="http://www.w3.org/2000/svg">
<circle opacity="0.2" cx="48" cy="27" r="27" fill="#4EBD09"/>
<g clip-path="url(#clip0_1982_2983)">
<path d="M61.4123 33.4916L37.106 27.7739C35.1754 27.2944 33.9293 27.0005 32.6822 27.0005C31.4356 27.0005 30.1891 27.2944 28.2701 27.771L3.95788 33.4916C2.30558 33.8754 1.29778 35.0961 1.37148 36.6117C1.29778 38.1224 2.30458 39.3431 3.95548 39.7318L4.08778 39.7629V53.7046C3.46178 53.8836 2.88478 54.2098 2.41888 54.6915C1.62328 55.5116 1.29018 56.605 1.38348 57.667L0.0394838 64.4287C-0.0801162 65.0176 0.0741838 65.6113 0.472584 66.0986C0.927684 66.6543 1.66008 67 2.38418 67H7.72058C8.44178 67 9.17218 66.6563 9.62678 66.1026C10.0272 65.6163 10.1829 65.0225 10.0662 64.4317L8.80518 58.0921C9.05128 56.8739 8.70478 55.5589 7.75718 54.6272C7.28508 54.1625 6.70878 53.8522 6.08778 53.6863V40.2331L11.4466 41.493V55.7716C11.4466 57.6563 12.6565 60.2881 18.4211 62.1241C22.1598 63.3155 27.1725 63.9717 32.5357 63.9717C43.0326 63.9717 53.6248 61.4356 53.6248 55.7716V41.5626L61.4133 39.7318C63.0632 39.3422 64.07 38.1215 63.9963 36.6117C64.0699 35.097 63.0621 33.8763 61.4123 33.4916ZM7.72058 65H2.38418C2.19078 65 2.01898 64.8574 2.00038 64.8223L2.88628 60.3664C3.53308 60.8483 4.30358 61.1212 5.11948 61.1212C5.13558 61.1212 5.15118 61.1212 5.16738 61.1212C5.91808 61.1117 6.63268 60.8823 7.23988 60.4656L8.10538 64.796C8.08528 64.8564 7.91438 65 7.72058 65ZM6.38508 58.584C6.05448 58.9238 5.61308 59.1152 5.14238 59.1211C4.68388 59.1182 4.22348 58.9463 3.88508 58.6143C3.18338 57.9239 3.17028 56.7891 3.85478 56.0831L3.85628 56.0821C4.18588 55.7413 4.62628 55.5499 5.09748 55.544C5.10478 55.544 5.11208 55.544 5.11948 55.544C5.58288 55.544 6.02088 55.7247 6.35478 56.0528C7.05648 56.7432 7.06968 57.878 6.38508 58.584ZM32.5357 61.9717C21.653 61.9717 13.4466 59.3057 13.4466 55.7716V53.7868C17.5619 56.7959 25.4496 58.1124 32.7759 58.1124C33.4658 58.1124 34.1504 58.1007 34.8262 58.0782C37.8751 57.9749 47.0325 57.365 51.6248 53.9102V55.7716C51.6248 59.3057 43.4183 61.9717 32.5357 61.9717ZM51.6248 51.1309C49.6345 53.8629 43.0866 55.7973 34.7588 56.0792C24.828 56.4191 16.1689 54.3716 13.4466 51.0915V41.9632L28.2579 45.4455C30.189 45.925 31.4356 46.2189 32.6822 46.2189C33.9293 46.2189 35.1753 45.925 37.0938 45.4484L51.6249 42.0326L51.6248 51.1309ZM61.9967 36.682C62.0353 37.225 61.6647 37.6166 60.9542 37.7845L36.6235 43.5042C34.6684 43.9905 33.6426 44.219 32.6821 44.219C31.7178 44.219 30.7402 44.0012 28.728 43.5012L4.41398 37.7845C3.70258 37.6175 3.33248 37.2259 3.37098 36.682C3.37438 36.6351 3.37438 36.5883 3.37098 36.5414C3.33238 35.9955 3.70208 35.6039 4.41348 35.4389L28.7403 29.7153C30.7403 29.2182 31.7178 29.0005 32.6821 29.0005C33.6425 29.0005 34.6684 29.229 36.6357 29.7183L60.9562 35.4389C61.6657 35.6049 62.0353 35.9965 61.9967 36.5414C61.9933 36.5882 61.9933 36.6351 61.9967 36.682Z" fill="#0D1A30"/>
</g>
<defs>
<clipPath id="clip0_1982_2983">
<rect width="64" height="64" fill="white" transform="translate(0 15)"/>
</clipPath>
</defs>
</svg>
