<svg width="75" height="79" viewBox="0 0 75 79" fill="none" xmlns="http://www.w3.org/2000/svg">
<circle opacity="0.2" cx="48" cy="27" r="27" fill="#FA2702"/>
<g clip-path="url(#clip0_1982_3001)">
<path d="M55.3188 62.3062H54.425V23.3063C54.425 21.3563 52.8812 19.8125 50.9312 19.8125C48.9813 19.8125 47.4375 21.3563 47.4375 23.3063V26.475H41.75V24.9313C41.75 22.9813 40.125 21.4375 38.175 21.4375C36.225 21.4375 34.6 22.9813 34.6 24.9313V26.475H29.5625V24.9313C29.5625 22.9813 27.9375 21.4375 25.9875 21.4375C24.0375 21.4375 22.4125 22.9813 22.4125 24.9313V26.475H16.6438V23.3063C16.6438 21.3563 15.1 19.8125 13.15 19.8125C11.2 19.8125 9.65625 21.3563 9.65625 23.3063V62.3062H8.68125C7.625 62.3062 6.8125 63.1187 6.8125 64.175V68.4C6.8125 69.4562 7.625 70.2687 8.68125 70.2687H55.2375C56.2937 70.2687 57.1063 69.4562 57.1063 68.4V64.175C57.1063 63.1187 56.2938 62.3062 55.3188 62.3062ZM48.9 23.3063C48.9 22.25 49.7938 21.4375 50.85 21.4375C51.9062 21.4375 52.7188 22.25 52.7188 23.3063V62.3062H48.9V23.3063ZM16.725 62.3062V55.2375H28.5063V56.7812C28.5063 58.7313 30.1312 60.275 32.0812 60.275C34.0312 60.275 35.6562 58.7313 35.6562 56.7812V55.2375H38.0125V56.7812C38.0125 58.7313 39.6375 60.275 41.5875 60.275C43.5375 60.275 45.1625 58.7313 45.1625 56.7812V55.2375H47.5187V62.3062H16.725ZM24.525 43.2937C24.525 44.35 23.6313 45.1625 22.575 45.1625C21.5188 45.1625 20.625 44.2687 20.625 43.2937V38.5C20.625 37.4438 21.5188 36.6313 22.575 36.6313C23.6313 36.6313 24.525 37.525 24.525 38.5V43.2937ZM22.575 46.7875C24.525 46.7875 26.15 45.2437 26.15 43.2937V41.75H28.5063V43.2937C28.5063 45.2437 30.1312 46.7875 32.0812 46.7875C34.0312 46.7875 35.6562 45.2437 35.6562 43.2937V41.75H38.0125V43.2937C38.0125 45.2437 39.6375 46.7875 41.5875 46.7875C43.5375 46.7875 45.1625 45.2437 45.1625 43.2937V41.75H47.5187V53.6938H45.1625V52.15C45.1625 50.2 43.5375 48.6562 41.5875 48.6562C39.6375 48.6562 38.0125 50.2812 38.0125 52.15V53.6938H35.6562V52.15C35.6562 50.2 34.0312 48.6562 32.0812 48.6562C30.1312 48.6562 28.5063 50.2812 28.5063 52.15V53.6938H16.725V41.6687H19.0813V43.2125C19.0813 45.2437 20.625 46.7875 22.575 46.7875ZM33.95 43.2937C33.95 44.35 33.0562 45.1625 32 45.1625C30.9438 45.1625 30.05 44.2687 30.05 43.2937V38.5C30.05 37.4438 30.9438 36.6313 32 36.6313C33.0562 36.6313 33.95 37.525 33.95 38.5V43.2937ZM43.2938 43.2937C43.2938 44.35 42.4 45.1625 41.3438 45.1625C40.2875 45.1625 39.3937 44.2687 39.3937 43.2937V38.5C39.3937 37.4438 40.2875 36.6313 41.3438 36.6313C42.4 36.6313 43.2938 37.525 43.2938 38.5V43.2937ZM39.475 52.0688C39.475 51.0125 40.3687 50.2 41.425 50.2C42.4812 50.2 43.375 51.0938 43.375 52.0688V56.8625C43.375 57.9187 42.4812 58.7313 41.425 58.7313C40.3687 58.7313 39.475 57.8375 39.475 56.8625V52.0688ZM30.05 52.0688C30.05 51.0125 30.9438 50.2 32 50.2C33.0562 50.2 33.95 51.0938 33.95 52.0688V56.8625C33.95 57.9187 33.0562 58.7313 32 58.7313C30.9438 58.7313 30.05 57.8375 30.05 56.8625V52.0688ZM36.225 24.9313C36.225 23.875 37.1187 23.0625 38.175 23.0625C39.2312 22.9813 40.125 23.875 40.125 24.9313V29.725C40.125 30.7812 39.2312 31.5938 38.175 31.5938C37.1187 31.5938 36.225 30.7 36.225 29.725V24.9313ZM24.1187 24.9313C24.1187 23.875 25.0125 23.0625 26.0688 23.0625C27.125 22.9813 27.9375 23.875 27.9375 24.9313V29.725C27.9375 30.7812 27.0438 31.5938 25.9875 31.5938C24.9312 31.5938 24.0375 30.7 24.0375 29.725V24.9313H24.1187ZM22.4937 28.1V29.6438C22.4937 31.5938 24.1187 33.1375 26.0688 33.1375C28.0188 33.1375 29.6438 31.5125 29.6438 29.6438V28.1H34.6812V29.6438C34.6812 31.5938 36.3062 33.1375 38.2563 33.1375C40.2062 33.1375 41.8312 31.5125 41.8312 29.6438V28.1H47.4375V40.0437H45.0812V38.5C45.0812 36.55 43.4562 35.0063 41.5063 35.0063C39.5563 35.0063 37.9312 36.55 37.9312 38.5V40.0437H35.575V38.5C35.575 36.55 33.95 35.0063 32 35.0063C30.05 35.0063 28.425 36.55 28.425 38.5V40.0437H26.0688V38.5C26.0688 36.55 24.4438 35.0063 22.4937 35.0063C20.5437 35.0063 18.9187 36.55 18.9187 38.5V40.0437H16.5625V28.1H22.4937ZM11.2812 23.3063C11.2812 22.25 12.0938 21.4375 13.15 21.4375C14.2063 21.4375 15.0188 22.25 15.0188 23.3063V62.3062H11.2812V23.3063ZM55.4813 68.3188C55.4813 68.4813 55.4 68.5625 55.2375 68.5625H8.68125C8.51875 68.5625 8.4375 68.4813 8.4375 68.3188V64.0938C8.4375 63.9313 8.51875 63.85 8.68125 63.85H55.2375C55.4 63.85 55.4813 63.9313 55.4813 64.0938V68.3188Z" fill="black"/>
</g>
<defs>
<clipPath id="clip0_1982_3001">
<rect width="52" height="52" fill="white" transform="translate(6 19)"/>
</clipPath>
</defs>
</svg>
