<svg width="75" height="79" viewBox="0 0 75 79" fill="none" xmlns="http://www.w3.org/2000/svg">
<circle opacity="0.2" cx="48" cy="27" r="27" fill="#4EBD09"/>
<path d="M60.0109 60.5836V37.2798C60.0109 35.114 58.2491 33.3522 56.0834 33.3522H45.3624C45.3624 33.3431 45.3637 33.3345 45.3637 33.3254V29.0332C45.3637 25.3781 43.8618 23.4295 42.6019 22.4384C40.7732 20.9995 38.1249 20.517 35.5195 21.1489C31.7927 22.0504 29.655 24.9243 29.655 29.0332V33.3253C29.655 33.3344 29.6563 33.3431 29.6564 33.3522H18.9143C16.7486 33.3522 14.9868 35.114 14.9868 37.2797V60.5838C13.7553 60.7418 12.7969 61.7864 12.7969 63.0615V65.614C12.7969 66.9961 13.9213 68.1205 15.3034 68.1205H59.6966C61.0787 68.1205 62.2031 66.9961 62.2031 65.614V63.0615C62.2031 61.7856 61.2435 60.7405 60.0109 60.5836ZM56.0834 34.9459C57.3705 34.9459 58.4172 35.993 58.4172 37.2797V60.5517H56.4903V37.986C56.4903 37.5459 56.1339 37.1891 55.6935 37.1891H44.3396C44.7317 36.4987 45.0251 35.7457 45.1936 34.946L56.0834 34.9459ZM52.492 60.5518V53.5877C52.492 47.7442 48.117 42.7307 42.405 41.8637V39.4572C42.6663 39.2481 42.9134 39.023 43.146 38.7829H54.8967V60.5518H52.492ZM46.233 56.0795C45.7925 56.0795 45.4361 56.4359 45.4361 56.8764V60.5518H41.1994L39.6527 51.3999L40.5304 49.2247L40.8509 49.4725C41.1997 49.7438 41.7289 49.6647 41.9855 49.3068L45.4163 44.5292C48.6751 46.2714 50.8983 49.7155 50.8983 53.5877V60.5518H47.0298V56.8764C47.0298 56.4359 46.6734 56.0795 46.233 56.0795ZM28.7834 56.0795C28.343 56.0795 27.9865 56.4359 27.9865 56.8764V60.5518H24.1205V53.5877C24.1205 49.7153 26.3438 46.271 29.6029 44.5289L33.0309 49.3068C33.1792 49.5137 33.4244 49.6391 33.6783 49.6391C33.8534 49.6391 34.0254 49.5815 34.1655 49.4725L34.4735 49.2344L35.3473 51.3998L33.7984 60.5517H29.5803V56.8763C29.5803 56.4359 29.2239 56.0795 28.7834 56.0795ZM20.101 60.5518V38.7829H31.8727C32.1053 39.023 32.3523 39.2481 32.6137 39.4572V41.8637C26.9017 42.7307 22.5267 47.7442 22.5267 53.5877V60.5518H20.101ZM34.2462 47.3959L33.844 47.7068L31.0993 43.8808C31.7644 43.6526 32.4586 43.4913 33.1771 43.4058L36.2238 45.8672L34.2935 47.3594C34.2785 47.3726 34.2601 47.3816 34.2462 47.3959ZM36.8445 52.1076H38.1554L39.5826 60.5518H35.4154L36.8445 52.1076ZM38.2915 50.5138H36.7086L35.7839 48.2217L37.5092 46.8882L39.2203 48.2115L38.2915 50.5138ZM38.7941 45.8679L41.8416 43.4058C42.5602 43.4912 43.2543 43.6526 43.9194 43.8808L41.1723 47.7068L38.7941 45.8679ZM40.8113 42.19L37.5093 44.8571L34.2074 42.19V40.4423C35.2128 40.9109 36.329 41.1801 37.5093 41.1801C38.6897 41.1801 39.8058 40.9109 40.8113 40.4423V42.19ZM43.77 33.3254C43.77 36.7778 40.9615 39.5863 37.5094 39.5863C35.718 39.5863 34.1044 38.826 32.9621 37.6158C32.9025 37.5047 32.8174 37.415 32.7144 37.3433C31.801 36.255 31.2488 34.854 31.2488 33.3253V30.5926C33.1118 30.6166 34.0123 30.4255 34.7211 28.6456C36.1911 30.0316 38.6579 30.6144 42.854 30.6144C43.1502 30.6144 43.4565 30.611 43.77 30.6052V33.3254ZM43.6604 62.1456C43.587 62.8223 43.0185 63.3525 42.3225 63.3525H32.6744C31.9784 63.3525 31.4106 62.8223 31.3373 62.1456H43.6604ZM35.8946 22.6979C38.0284 22.1808 40.1685 22.5515 41.6167 23.6912C43.0416 24.8119 43.7653 26.6017 43.77 29.0118C37.7281 29.125 35.9662 28.1562 35.1265 26.5664C34.988 26.3033 34.7156 26.1419 34.4222 26.1419C34.3919 26.1419 34.36 26.1438 34.3288 26.1473C34.002 26.1858 33.7328 26.4212 33.6502 26.7402C33.0697 28.9994 32.9973 29.025 31.2487 29.0001C31.2596 25.6578 32.9086 23.4205 35.8946 22.6979ZM18.9143 34.9459H29.8251C29.9936 35.7456 30.287 36.4986 30.6791 37.189H19.3042C18.8637 37.189 18.5073 37.5459 18.5073 37.9859V60.5517H16.5804V37.2798C16.5804 35.993 17.6271 34.9459 18.9143 34.9459ZM60.6094 65.614C60.6094 66.1174 60.2 66.5268 59.6966 66.5268H15.3034C14.8 66.5268 14.3906 66.1174 14.3906 65.614V63.0615C14.3906 62.5564 14.8 62.1456 15.3034 62.1456H29.7435C29.8208 63.7013 31.0998 64.9463 32.6744 64.9463H42.3224C43.8977 64.9463 45.1768 63.7012 45.2541 62.1456H59.6965C60.1999 62.1456 60.6093 62.5564 60.6093 63.0615L60.6094 65.614Z" fill="black"/>
<path d="M51.1798 63.449C50.8 63.6723 50.6739 64.161 50.8965 64.54L50.9043 64.5532C51.0521 64.8038 51.3137 64.9415 51.5836 64.9415C51.7221 64.9415 51.863 64.9049 51.9914 64.8295C52.3712 64.6061 52.4933 64.1112 52.2708 63.7322C52.0475 63.3525 51.5603 63.2248 51.1798 63.449Z" fill="black"/>
<path d="M54.068 63.449C53.6882 63.6723 53.5621 64.161 53.7847 64.54L53.7925 64.5532C53.9403 64.8038 54.2018 64.9415 54.4718 64.9415C54.6103 64.9415 54.7512 64.9049 54.8796 64.8295C55.2594 64.6061 55.3815 64.1112 55.159 63.7322C54.9357 63.3525 54.4478 63.2248 54.068 63.449Z" fill="black"/>
</svg>
