<svg width="75" height="79" viewBox="0 0 75 79" fill="none" xmlns="http://www.w3.org/2000/svg">
<circle opacity="0.2" cx="48" cy="27" r="27" fill="#FA2702"/>
<path d="M63.0575 54.6999H62.5065V52.6689C62.5065 49.1768 60.7296 47.2731 57.3946 47.0958C56.9096 34.4157 46.4487 24.2478 33.653 24.2478C29.4316 24.2478 25.3417 25.3584 21.7256 27.4606L21.7101 27.3189C21.6887 27.1221 21.6068 26.9368 21.4746 26.7893L15.6655 20.2524C15.404 19.9583 14.9897 19.8545 14.6202 19.9923C14.2516 20.1296 14.0059 20.4796 14.0003 20.8728L13.9361 25.8301L9.00575 25.3132C8.60267 25.2741 8.23781 25.476 8.05824 25.826C7.87868 26.176 7.93253 26.6004 8.19406 26.894L14.0031 33.4304C14.1344 33.5789 14.3085 33.6823 14.502 33.7265L14.6585 33.7624C11.5815 37.86 9.8872 42.8567 9.8872 48.014C9.8872 61.1172 20.5484 71.777 33.653 71.777C36.2722 71.777 38.8314 71.3519 41.2808 70.5205V73.1495C41.2798 74.171 41.278 75.442 42.137 76.3015C42.6443 76.8097 43.3564 77.0676 44.2536 77.0676H48.4933C50.1324 77.0676 51.4654 75.7342 51.4654 74.0955C51.4654 72.7538 50.5699 71.6173 49.345 71.2505V69.6187C50.4873 69.5595 51.6751 69.2913 52.2725 68.0932C53.3854 69.2292 54.7881 70.3183 56.8956 70.3183C60.5667 70.3183 62.5064 68.3794 62.5064 64.7112V62.6796H63.0574C65.2568 62.6796 67.0467 60.8902 67.0467 58.6903C67.0468 56.4898 65.2569 54.6999 63.0575 54.6999ZM33.653 26.1541C45.4505 26.1541 55.0891 35.5511 55.4922 47.253C53.843 47.6819 52.6962 48.8009 51.7504 49.8342C51.8106 49.2305 51.8507 48.6239 51.8507 48.014C51.8507 37.9778 43.6868 29.8125 33.6529 29.8125C29.4085 29.8125 25.5082 31.2852 22.4093 33.7308L21.9544 29.5595C25.4545 27.338 29.483 26.1541 33.653 26.1541ZM33.653 59.1583C27.5079 59.1583 22.5077 54.1591 22.5077 48.014C22.5077 45.0482 23.6791 42.3562 25.5739 40.3568L28.7808 43.9654C27.866 45.0644 27.3143 46.4757 27.3143 48.0139C27.3143 51.5071 30.1579 54.3489 33.653 54.3489C37.1471 54.3489 39.9907 51.5072 39.9907 48.0139C39.9907 44.5188 37.1471 41.6753 33.653 41.6753C32.3821 41.6753 31.1997 42.0549 30.2066 42.7015L26.9988 39.0918C28.8586 37.7004 31.1573 36.8655 33.653 36.8655C39.7981 36.8655 44.7973 41.8667 44.7973 48.014C44.7973 49.4771 44.5044 50.8873 43.958 52.2229C40.8248 52.5221 38.3401 55.0573 38.1087 58.2112C36.7005 58.8284 35.2078 59.1583 33.653 59.1583ZM49.4621 51.9282C49.1296 52.0954 48.7838 52.1914 48.392 52.1914H46.0196C46.4729 50.8524 46.7036 49.4531 46.7036 48.014C46.7036 40.8158 40.849 34.9593 33.6531 34.9593C30.672 34.9593 27.9299 35.9752 25.73 37.664L23.5733 35.237C26.3496 33.041 29.8471 31.7188 33.6531 31.7188C42.6361 31.7188 49.9447 39.0287 49.9447 48.0141C49.9445 49.3402 49.7772 50.6533 49.4621 51.9282ZM34.365 47.3811L31.5039 44.1616C32.1432 43.8033 32.8692 43.5816 33.6529 43.5816C36.0962 43.5816 38.0844 45.5697 38.0844 48.014C38.0844 50.4559 36.0962 52.4427 33.6529 52.4427C31.2086 52.4427 29.2205 50.4559 29.2205 48.014C29.2205 47.0434 29.5432 46.1521 30.0743 45.4212L32.9408 48.6469C33.1289 48.8592 33.3904 48.9671 33.6529 48.9671C33.8781 48.9671 34.1043 48.8879 34.2859 48.7265C34.6796 48.3771 34.715 47.7744 34.365 47.3811ZM39.9907 58.6902C39.9907 56.158 42.0496 54.0976 44.5795 54.0976H47.4389V63.2779H44.5795C42.0495 63.278 39.9907 61.22 39.9907 58.6902ZM22.1414 36.4943L24.3024 38.926C22.0165 41.2785 20.6015 44.4821 20.6015 48.014C20.6015 55.2099 26.4561 61.0646 33.653 61.0646C35.2533 61.0646 36.8 60.7714 38.2718 60.2115C38.536 61.3059 39.0766 62.2909 39.8176 63.0917C37.8657 63.8932 35.7993 64.3056 33.653 64.3056C24.67 64.3056 17.3614 56.997 17.3614 48.014C17.3614 43.5199 19.1898 39.4451 22.1414 36.4943ZM11.2517 27.4656L14.7757 27.8351C15.0493 27.8608 15.309 27.777 15.5082 27.5996C15.7084 27.4214 15.8247 27.1673 15.8284 26.8996L15.8741 23.3566L19.8475 27.8281L20.4265 33.1313L15.2253 31.9366L11.2517 27.4656ZM33.653 69.8708C21.5993 69.8708 11.7934 60.0659 11.7934 48.0141C11.7934 42.9838 13.5447 38.1192 16.709 34.2333L20.7756 35.167C17.4901 38.4615 15.4551 43.0044 15.4551 48.0141C15.4551 58.0484 23.619 66.2119 33.6529 66.2119C36.324 66.2119 38.8852 65.6436 41.2807 64.5332V68.4802C38.8427 69.3897 36.2837 69.8708 33.653 69.8708ZM49.5591 74.0956C49.5591 74.6732 49.0714 75.1614 48.4933 75.1614H44.2536C43.8804 75.1614 43.6226 75.092 43.4857 74.9548C43.1851 74.6542 43.186 73.821 43.1869 73.1518V69.1692V69.1651V65.0302C43.6361 65.1287 44.101 65.1843 44.5793 65.1843H47.4387V72.0796C47.4387 72.6059 47.865 73.0327 48.3918 73.0327H48.4932C49.0807 73.0327 49.5591 73.5096 49.5591 74.0956ZM49.345 67.7125V65.3934C49.8193 65.6036 50.2606 65.9681 50.7469 66.4632C50.6962 67.43 50.393 67.6622 49.345 67.7125ZM52.8923 65.9679C51.9389 64.9145 50.8729 63.7552 49.345 63.3984V53.9772C50.8723 53.6207 51.9389 52.4624 52.8923 51.41C53.6547 50.5684 54.3934 49.7673 55.3328 49.3241V68.0551C54.3934 67.6115 53.6547 66.8098 52.8923 65.9679ZM60.6001 64.7114C60.6001 67.2166 59.6085 68.2961 57.239 68.3931V48.9864C59.6085 49.0833 60.6001 50.1629 60.6001 52.6689V64.7114ZM63.0575 60.7733H62.5065V56.6062H63.0575C64.2061 56.6062 65.1405 57.5412 65.1405 58.6902C65.1405 59.8388 64.206 60.7733 63.0575 60.7733Z" fill="black"/>
</svg>
