<svg width="32" height="32" viewBox="0 0 32 32" fill="none" xmlns="http://www.w3.org/2000/svg">
<path d="M17.5725 9.74453H14.9209V16.8741L19.2868 21.2105L21.1614 19.3485L17.5725 15.7837V9.74453Z" fill="white"/>
<path fill-rule="evenodd" clip-rule="evenodd" d="M27.3503 15.9998C27.3503 10.2724 22.6758 5.62947 16.9096 5.62947V2.6665C24.3233 2.6665 30.3333 8.63604 30.3333 15.9998C30.3333 23.3636 24.3233 29.3332 16.9096 29.3332C9.49588 29.3332 3.48588 23.3636 3.48588 15.9998H6.46893C6.46893 21.7272 11.1434 26.3702 16.9096 26.3702C22.6758 26.3702 27.3503 21.7272 27.3503 15.9998Z" fill="white"/>
<path d="M8.9548 16.6486H1L4.9774 11.0616L8.9548 16.6486Z" fill="white"/>
</svg>
