<svg width="32" height="32" viewBox="0 0 32 32" fill="none" xmlns="http://www.w3.org/2000/svg">
<path d="M9.33333 14.6665H12V17.3332H9.33333V14.6665ZM28 7.99984V26.6665C28 28.1332 26.8 29.3332 25.3333 29.3332H6.66667C5.95942 29.3332 5.28115 29.0522 4.78105 28.5521C4.28095 28.052 4 27.3737 4 26.6665L4.01333 7.99984C4.01333 6.53317 5.18667 5.33317 6.66667 5.33317H8V2.6665H10.6667V5.33317H21.3333V2.6665H24V5.33317H25.3333C26.8 5.33317 28 6.53317 28 7.99984ZM6.66667 10.6665H25.3333V7.99984H6.66667V10.6665ZM25.3333 26.6665V13.3332H6.66667V26.6665H25.3333ZM20 17.3332H22.6667V14.6665H20V17.3332ZM14.6667 17.3332H17.3333V14.6665H14.6667V17.3332Z" fill="white"/>
</svg>
