<svg width="146" height="60" viewBox="0 0 146 60" fill="none" xmlns="http://www.w3.org/2000/svg">
<g clip-path="url(#clip0_1982_2969)">
<path d="M54.6384 25.2139H46.2375L38.3576 34.7732H35.6875V14.1147H28.3286V50.2991H35.6875V40.6115H38.3576L46.2375 50.2991H54.964L44.2838 37.2753L54.6384 25.2139Z" fill="#4EBD09"/>
<path d="M64.8628 15.5259H57.5039V22.134H64.8628V15.5259Z" fill="#4EBD09"/>
<path d="M64.8628 25.2139H57.5039V50.3633H64.8628V25.2139Z" fill="#4EBD09"/>
<path d="M75.6729 15.5903H68.314V50.3633H75.6729V15.5903Z" fill="#4EBD09"/>
<path d="M22.272 35.9919C21.2951 35.4786 20.188 35.1578 18.8205 35.0295C17.518 34.9012 14.9131 34.8371 13.285 34.8371H11.2662C9.96368 34.8371 8.98684 34.7087 8.3356 34.6446C7.94486 34.5804 7.68437 34.4521 7.489 34.388C7.29363 34.2596 7.16338 34.1955 7.09826 34.0672C6.90289 33.8106 6.83777 33.3615 6.83777 32.784V32.6557C6.83777 32.0783 6.96801 31.6292 7.09826 31.3726C7.16338 31.3084 7.29363 31.1801 7.489 31.0518C7.68437 30.9235 8.00999 30.8593 8.3356 30.7952C8.98684 30.6669 9.96368 30.6027 11.2662 30.6027H23.1186V24.8286H10.9405C9.31245 24.8286 7.87974 24.8928 6.57727 25.0211C5.27481 25.1494 4.10259 25.4702 3.12574 25.9834C2.14889 26.4967 1.36741 27.3307 0.846421 28.4214C0.325435 29.5121 0.0649414 30.9877 0.0649414 32.7199C0.0649414 34.5163 0.325435 35.9277 0.846421 37.0184C1.36741 38.1091 2.14889 38.9431 3.12574 39.4563C4.10259 39.9696 5.20968 40.2904 6.57727 40.4187C7.87974 40.547 9.37757 40.6112 10.9405 40.6112H11.9174H12.9594C14.2618 40.6112 16.4109 40.7395 16.997 40.8036C17.3877 40.8678 17.6482 40.9961 17.8436 41.0603C18.039 41.1886 18.1692 41.2527 18.2343 41.381C18.4297 41.6377 18.4948 42.0868 18.4948 42.6642V42.7925C18.4948 43.3699 18.3646 43.819 18.2343 44.0756C18.1692 44.1398 18.039 44.2681 17.8436 44.3964C17.6482 44.5247 17.3226 44.5889 16.997 44.653C16.3458 44.7813 15.3689 44.8455 14.0665 44.8455L1.43253 44.9097V50.6838H14.4572C16.0853 50.6838 17.518 50.6196 18.8205 50.4913C20.1229 50.363 21.2951 50.0422 22.272 49.5289C23.2488 49.0157 24.0303 48.1817 24.5513 47.091C25.0723 46.0003 25.3328 44.5247 25.3328 42.7925C25.3328 40.9961 25.0723 39.5847 24.5513 38.494C24.0303 37.3392 23.2488 36.5051 22.272 35.9919Z" fill="#4EBD09"/>
<path d="M89.4792 14.1147L82.7064 4.17041L75.9336 14.1147H79.0595V50.2991H86.4184V14.1147H89.4792Z" fill="#4EBD09"/>
<path d="M109.602 38.3657C109.602 39.4564 109.537 40.2262 109.407 40.9961C109.276 41.8302 109.016 42.4717 108.69 42.9208C108.3 43.4341 107.779 43.7549 107.062 44.0756C106.346 44.3323 105.304 44.4606 104.001 44.4606C102.829 44.4606 101.852 44.3964 101.136 44.2681C100.42 44.1398 99.9639 43.8832 99.7034 43.5624C99.4429 43.2416 99.1824 42.6642 99.0521 41.8943C98.987 41.3169 98.9219 40.547 98.9219 39.713V9.94429H101.983L95.2098 0L88.437 9.94429H91.4978V39.713V40.4829C91.4978 42.0868 91.6281 43.4982 91.8234 44.7172C92.0839 46.0003 92.5398 47.091 93.191 47.9892C93.9074 48.8874 94.8842 49.5931 96.1216 50.0422C97.424 50.4913 99.0521 50.6838 101.071 50.6838C102.634 50.6838 104.001 50.5555 105.174 50.2988C106.346 50.0422 107.323 49.5931 108.169 49.0157C108.821 48.5666 109.342 47.9892 109.863 47.3476L110.058 50.2988H116.961V26.1118H109.602V38.3657Z" fill="#FA2702"/>
<path d="M145.42 31.3728C145.159 30.2821 144.768 29.3198 144.117 28.5499C143.466 27.78 142.554 27.2026 141.317 26.8176C140.08 26.4327 138.517 26.2402 136.563 26.2402H120.347V60.0508H127.771V50.6839H136.498C138.517 50.6839 140.145 50.4915 141.382 50.0424C142.619 49.5933 143.531 48.9517 144.182 48.1818C144.834 47.3478 145.289 46.4496 145.485 45.2948C145.68 44.2041 145.81 36.5053 145.81 35.2222C145.81 33.7466 145.68 32.4634 145.42 31.3728ZM138.256 42.9851C138.191 43.4984 137.93 43.8833 137.67 44.14C137.344 44.3966 136.888 44.589 136.237 44.7174C135.586 44.8457 134.674 44.8457 133.502 44.8457H127.771V32.0143H133.567C134.674 32.0143 135.586 32.0785 136.237 32.2068C136.888 32.3351 137.344 32.5276 137.67 32.7842C137.996 33.0408 138.191 33.4258 138.256 33.939C138.321 34.4523 138.386 35.0939 138.386 35.8637C138.386 36.5695 138.386 42.4719 138.256 42.9851Z" fill="#FA2702"/>
</g>
<defs>
<clipPath id="clip0_1982_2969">
<rect width="146" height="60" fill="white"/>
</clipPath>
</defs>
</svg>
